<svg width="80" height="80" viewBox="0 0 80 80" fill="none" xmlns="http://www.w3.org/2000/svg">
<rect width="80" height="80" rx="40" fill="url(#paint0_linear_58_43)"/>
<path d="M26.7342 26.5V40.528C27.6022 40.444 28.3582 40.122 29.0022 39.562C29.6742 38.974 30.2342 38.246 30.6822 37.378C31.1582 36.51 31.5082 35.558 31.7322 34.522C31.9842 33.458 32.1102 32.394 32.1102 31.33C32.1102 30.658 32.0262 29.93 31.8582 29.146C31.7182 28.334 31.3962 27.592 30.8922 26.92C30.4162 26.22 29.7022 25.646 28.7502 25.198C27.8262 24.722 26.5802 24.484 25.0122 24.484C23.7522 24.484 22.6042 24.652 21.5682 24.988C20.5322 25.324 19.6362 25.842 18.8802 26.542C18.1242 27.214 17.5362 28.096 17.1162 29.188C16.6962 30.252 16.4862 31.512 16.4862 32.968C16.4862 33.724 16.5282 34.354 16.6122 34.858C16.7242 35.334 16.8502 35.74 16.9902 36.076C17.1582 36.412 17.3262 36.692 17.4942 36.916C17.6622 37.14 17.8162 37.35 17.9562 37.546C16.2762 37.546 14.9462 37.154 13.9662 36.37C12.9862 35.586 12.4962 34.354 12.4962 32.674C12.4962 31.246 12.8322 29.916 13.5042 28.684C14.2042 27.452 15.1422 26.388 16.3182 25.492C17.5222 24.568 18.9082 23.854 20.4762 23.35C22.0722 22.818 23.7522 22.552 25.5162 22.552C27.2242 22.552 28.7782 22.776 30.1782 23.224C31.5782 23.672 32.7822 24.316 33.7902 25.156C34.7982 25.968 35.5682 26.962 36.1002 28.138C36.6602 29.286 36.9402 30.574 36.9402 32.002C36.9402 33.15 36.7302 34.326 36.3102 35.53C35.8902 36.734 35.2602 37.826 34.4202 38.806C33.5802 39.758 32.5302 40.542 31.2702 41.158C30.0382 41.774 28.5962 42.082 26.9442 42.082H26.7342V54.052H20.6862V27.34L26.7342 26.5ZM56.1579 27.844C56.1579 28.908 55.9199 29.776 55.4439 30.448C54.9959 31.092 54.3379 31.414 53.4699 31.414C52.6859 31.414 51.9859 31.12 51.3699 30.532C51.7619 30.252 52.0559 29.846 52.2519 29.314C52.4759 28.782 52.5879 28.236 52.5879 27.676C52.5879 26.808 52.3079 26.094 51.7479 25.534C51.1879 24.974 50.3339 24.694 49.1859 24.694C47.9259 24.694 47.0159 25.044 46.4559 25.744C45.8959 26.444 45.6159 27.382 45.6159 28.558C45.6159 29.93 45.9379 31.05 46.5819 31.918C47.2539 32.786 48.0799 33.57 49.0599 34.27C50.0399 34.942 51.0899 35.586 52.2099 36.202C53.3579 36.818 54.4219 37.546 55.4019 38.386C56.3819 39.226 57.1939 40.248 57.8379 41.452C58.5099 42.628 58.8459 44.14 58.8459 45.988C58.8459 47.556 58.5799 48.9 58.0479 50.02C57.5439 51.14 56.8439 52.064 55.9479 52.792C55.0519 53.492 53.9879 53.996 52.7559 54.304C51.5239 54.64 50.1799 54.808 48.7239 54.808C47.4359 54.808 46.1619 54.668 44.9019 54.388C43.6699 54.136 42.5639 53.716 41.5839 53.128C40.6319 52.512 39.8619 51.714 39.2739 50.734C38.6859 49.726 38.3919 48.508 38.3919 47.08C38.3919 46.128 38.5179 45.26 38.7699 44.476C39.0499 43.692 39.4139 43.034 39.8619 42.502C40.3379 41.97 40.8839 41.564 41.4999 41.284C42.1159 40.976 42.7599 40.822 43.4319 40.822C43.7679 40.822 44.1319 40.864 44.5239 40.948C44.9159 41.032 45.3079 41.186 45.6999 41.41C46.0919 41.606 46.4559 41.886 46.7919 42.25C47.1279 42.614 47.3939 43.062 47.5899 43.594C47.0859 43.594 46.5819 43.65 46.0779 43.762C45.5739 43.874 45.1119 44.07 44.6919 44.35C44.2999 44.63 43.9779 45.022 43.7259 45.526C43.4739 46.002 43.3479 46.618 43.3479 47.374C43.3479 48.83 43.7959 49.88 44.6919 50.524C45.5879 51.14 46.7079 51.448 48.0519 51.448C49.3959 51.448 50.4319 51.126 51.1599 50.482C51.8879 49.838 52.2519 48.732 52.2519 47.164C52.2519 45.708 51.9439 44.476 51.3279 43.468C50.7399 42.46 49.9839 41.578 49.0599 40.822C48.1359 40.066 47.1419 39.366 46.0779 38.722C45.0419 38.05 44.0619 37.336 43.1379 36.58C42.2139 35.796 41.4439 34.886 40.8279 33.85C40.2399 32.814 39.9459 31.54 39.9459 30.028C39.9459 27.592 40.7579 25.744 42.3819 24.484C44.0059 23.196 46.2179 22.552 49.0179 22.552C49.4099 22.552 49.9979 22.594 50.7819 22.678C51.5939 22.734 52.3919 22.944 53.1759 23.308C53.9879 23.644 54.6879 24.176 55.2759 24.904C55.8639 25.604 56.1579 26.584 56.1579 27.844Z" fill="white"/>
<defs>
<linearGradient id="paint0_linear_58_43" x1="40" y1="0" x2="40" y2="80" gradientUnits="userSpaceOnUse">
<stop stop-color="#9D5EC5"/>
<stop offset="1" stop-color="#6D31A3"/>
</linearGradient>
</defs>
</svg>
